<mxfile host="app.diagrams.net" modified="2023-11-05T02:31:07.854Z" agent="Mozilla/5.0 (Windows NT 10.0; Win64; x64) AppleWebKit/537.36 (KHTML, like Gecko) Chrome/119.0.0.0 Safari/537.36 Edg/119.0.0.0" etag="cvRloM9k5cyTDVUEWI4W" version="22.0.8" type="github">
  <diagram name="第 1 页" id="y_oVh00xYQ76v-E0nXmB">
    <mxGraphModel dx="929" dy="620" grid="1" gridSize="10" guides="1" tooltips="1" connect="1" arrows="1" fold="1" page="1" pageScale="1" pageWidth="827" pageHeight="1169" math="0" shadow="0">
      <root>
        <mxCell id="0" />
        <mxCell id="1" parent="0" />
        <mxCell id="PWc_ESf3Ge_niQkyrp-i-1" value="" style="rounded=0;whiteSpace=wrap;html=1;" vertex="1" parent="1">
          <mxGeometry x="350" y="200" width="180" height="230" as="geometry" />
        </mxCell>
        <mxCell id="PWc_ESf3Ge_niQkyrp-i-2" value="&lt;font style=&quot;font-size: 14px;&quot;&gt;项目bug发布及跟踪&lt;/font&gt;" style="text;html=1;strokeColor=none;fillColor=none;align=center;verticalAlign=middle;whiteSpace=wrap;rounded=0;" vertex="1" parent="1">
          <mxGeometry x="372.5" y="220" width="125" height="30" as="geometry" />
        </mxCell>
        <mxCell id="PWc_ESf3Ge_niQkyrp-i-3" value="提交BUG" style="ellipse;whiteSpace=wrap;html=1;" vertex="1" parent="1">
          <mxGeometry x="375" y="260" width="120" height="40" as="geometry" />
        </mxCell>
        <mxCell id="PWc_ESf3Ge_niQkyrp-i-4" value="修改BUG" style="ellipse;whiteSpace=wrap;html=1;" vertex="1" parent="1">
          <mxGeometry x="377.5" y="315" width="120" height="40" as="geometry" />
        </mxCell>
        <mxCell id="PWc_ESf3Ge_niQkyrp-i-5" value="浏览BUG状态" style="ellipse;whiteSpace=wrap;html=1;" vertex="1" parent="1">
          <mxGeometry x="377.5" y="370" width="120" height="40" as="geometry" />
        </mxCell>
        <mxCell id="PWc_ESf3Ge_niQkyrp-i-6" value="Actor" style="shape=umlActor;verticalLabelPosition=bottom;verticalAlign=top;html=1;outlineConnect=0;fontColor=none;noLabel=1;" vertex="1" parent="1">
          <mxGeometry x="260" y="285" width="30" height="60" as="geometry" />
        </mxCell>
        <mxCell id="PWc_ESf3Ge_niQkyrp-i-7" value="Actor" style="shape=umlActor;verticalLabelPosition=bottom;verticalAlign=top;html=1;outlineConnect=0;fontColor=none;noLabel=1;" vertex="1" parent="1">
          <mxGeometry x="580" y="280" width="30" height="60" as="geometry" />
        </mxCell>
        <mxCell id="PWc_ESf3Ge_niQkyrp-i-8" value="测试人员" style="text;html=1;strokeColor=none;fillColor=none;align=center;verticalAlign=middle;whiteSpace=wrap;rounded=0;" vertex="1" parent="1">
          <mxGeometry x="245" y="345" width="60" height="30" as="geometry" />
        </mxCell>
        <mxCell id="PWc_ESf3Ge_niQkyrp-i-9" value="项目成员" style="text;html=1;strokeColor=none;fillColor=none;align=center;verticalAlign=middle;whiteSpace=wrap;rounded=0;" vertex="1" parent="1">
          <mxGeometry x="565" y="345" width="60" height="30" as="geometry" />
        </mxCell>
        <mxCell id="PWc_ESf3Ge_niQkyrp-i-11" value="" style="endArrow=classic;html=1;rounded=0;entryX=0;entryY=0.5;entryDx=0;entryDy=0;exitX=1;exitY=0.3333333333333333;exitDx=0;exitDy=0;exitPerimeter=0;" edge="1" parent="1" source="PWc_ESf3Ge_niQkyrp-i-6" target="PWc_ESf3Ge_niQkyrp-i-3">
          <mxGeometry width="50" height="50" relative="1" as="geometry">
            <mxPoint x="300" y="310" as="sourcePoint" />
            <mxPoint x="350" y="260" as="targetPoint" />
          </mxGeometry>
        </mxCell>
        <mxCell id="PWc_ESf3Ge_niQkyrp-i-13" value="" style="endArrow=classic;html=1;rounded=0;entryX=0;entryY=0.5;entryDx=0;entryDy=0;exitX=1;exitY=0.3333333333333333;exitDx=0;exitDy=0;exitPerimeter=0;" edge="1" parent="1" source="PWc_ESf3Ge_niQkyrp-i-6" target="PWc_ESf3Ge_niQkyrp-i-5">
          <mxGeometry width="50" height="50" relative="1" as="geometry">
            <mxPoint x="240" y="480" as="sourcePoint" />
            <mxPoint x="290" y="430" as="targetPoint" />
          </mxGeometry>
        </mxCell>
        <mxCell id="PWc_ESf3Ge_niQkyrp-i-14" value="" style="endArrow=classic;html=1;rounded=0;exitX=0;exitY=0.3333333333333333;exitDx=0;exitDy=0;exitPerimeter=0;entryX=1;entryY=0.5;entryDx=0;entryDy=0;" edge="1" parent="1" source="PWc_ESf3Ge_niQkyrp-i-7" target="PWc_ESf3Ge_niQkyrp-i-4">
          <mxGeometry width="50" height="50" relative="1" as="geometry">
            <mxPoint x="570" y="260" as="sourcePoint" />
            <mxPoint x="620" y="210" as="targetPoint" />
          </mxGeometry>
        </mxCell>
        <mxCell id="PWc_ESf3Ge_niQkyrp-i-15" value="" style="endArrow=classic;html=1;rounded=0;entryX=1;entryY=0.5;entryDx=0;entryDy=0;" edge="1" parent="1" target="PWc_ESf3Ge_niQkyrp-i-5">
          <mxGeometry width="50" height="50" relative="1" as="geometry">
            <mxPoint x="580" y="300" as="sourcePoint" />
            <mxPoint x="610" y="460" as="targetPoint" />
          </mxGeometry>
        </mxCell>
      </root>
    </mxGraphModel>
  </diagram>
</mxfile>
